<?xml version="1.0" encoding="utf-8"?>
<!-- Generator: Adobe Illustrator 26.0.1, SVG Export Plug-In . SVG Version: 6.00 Build 0)  -->
<svg version="1.1" xmlns="http://www.w3.org/2000/svg" xmlns:xlink="http://www.w3.org/1999/xlink" x="0px" y="0px"
	 viewBox="0 0 1024 1024" style="enable-background:new 0 0 1024 1024;" xml:space="preserve">
<style type="text/css">
	.st0{fill:#1AEDE6;}
	.st1{fill:#FFFFFF;}
</style>
<g id="Layer_2">
</g>
<g id="Layer_1">
	<g>
		<g transform="translate(26.214175, 532.429038)">
			<g>
				<path class="st0" d="M50.4,15.3c27-5,40.5-18.9,40.5-41.6c0-10-1.3-27.2-4-51.6c-2.6-25.9-4-44.7-4-56.3
					c0-19,5.4-33.6,16.1-43.6c10.7-10.1,25-15.1,43-15.1h23v31.3h-16.3c-10.3,0-18,2.3-23,7c-5,4.6-7.5,12.2-7.5,22.8
					c0,7.7,0.5,17.1,1.6,28.4c1.1,11.2,1.7,18.8,2,22.8c2.6,25.4,4,43.9,4,55.5c0,14-3.5,25.7-10.5,35.1c-7,9.4-17.8,15.7-32.3,18.8
					v0.8c14.5,3.2,25.3,9.5,32.3,19c7,9.5,10.5,21.3,10.5,35.3c0,11.6-1.3,30.1-4,55.5c-0.3,4-0.9,11.6-2,22.8
					c-1.1,11.2-1.6,20.7-1.6,28.4c0,10.6,2.5,18.2,7.5,22.8c5,4.6,12.7,6.9,23,6.9H165v31.3h-23c-18,0-32.3-5-43-15.1
					c-10.7-10-16.1-24.6-16.1-43.6c0-11.6,1.3-30.4,4-56.3c2.7-24.3,4-41.5,4-51.6c0-22.7-13.5-36.6-40.5-41.6V15.3z"/>
			</g>
		</g>
	</g>
	<g>
		<g transform="translate(612.330213, 536.009965)">
			<g>
				<path class="st0" d="M346.7,43.7c-27.2,5.1-40.7,19-40.7,41.9c0,10.1,1.3,27.4,4,51.9c2.7,26.1,4,45,4,56.7
					c0,19.2-5.4,33.8-16.2,43.9c-10.8,10.1-25.2,15.2-43.3,15.2h-23.2v-31.5h16.4c10.4,0,18.1-2.3,23.2-7c5.1-4.7,7.6-12.3,7.6-22.9
					c0-7.7-0.5-17.2-1.6-28.6c-1.1-11.3-1.7-19-2-23c-2.7-25.6-4-44.2-4-55.9c0-14.1,3.5-26,10.6-35.5c7.1-9.6,17.9-16,32.5-19.2
					v-0.8c-14.6-3.2-25.5-9.5-32.5-19c-7.1-9.5-10.6-21.2-10.6-35.4c0-11.7,1.3-30.3,4-55.9c0.3-4,0.9-11.7,2-23
					c1.1-11.3,1.6-20.8,1.6-28.6c0-10.7-2.5-18.3-7.6-23c-5.1-4.7-12.8-7-23.2-7h-16.4v-31.5h23.2c18.1,0,32.6,5.1,43.3,15.2
					c10.8,10.1,16.2,24.8,16.2,43.9c0,11.7-1.3,30.6-4,56.7c-2.7,24.5-4,41.8-4,51.9c0,22.9,13.6,36.9,40.7,41.9V43.7z"/>
			</g>
		</g>
	</g>
	<g>
		<g>
			<path class="st1" d="M300.4,489.9l-48.2-86.8h21.4l38.7,71.8l-5.4,0.4l38.3-72.2h21.2l-48.6,86.8v43.4h-17.5V489.9z"/>
			<path class="st1" d="M377.2,533.3l56.7-135.5h1.1l56.9,135.5h-20l-42.5-108.2l12.4-8.1l-47.3,116.3H377.2z M410.5,484h48.4
				l5.8,15.1h-59.2L410.5,484z"/>
			<path class="st1" d="M583.7,426.4c-4.4-2.3-9.3-4.3-14.6-5.9c-5.3-1.7-10.4-2.5-15.5-2.5c-7,0-12.5,1.6-16.7,4.9
				c-4.1,3.2-6.2,7.6-6.2,13c0,4.1,1.3,7.5,4,10.4c2.7,2.8,6.2,5.3,10.4,7.3c4.3,2,8.8,4,13.6,5.8c4,1.4,7.9,3.2,11.9,5.1
				c4,2,7.5,4.4,10.7,7.3c3.2,2.9,5.7,6.4,7.6,10.6c1.9,4.2,2.8,9.4,2.8,15.5c0,7-1.7,13.3-5.1,18.9c-3.4,5.6-8.3,10.1-14.7,13.3
				c-6.4,3.2-14,4.9-22.9,4.9c-5.6,0-11.1-0.6-16.3-1.9c-5.2-1.3-10.1-3-14.5-5.1c-4.4-2.2-8.4-4.4-11.9-6.7l7.7-13.7
				c2.9,2,6.2,4,9.9,5.8c3.7,1.9,7.6,3.3,11.7,4.4c4.1,1.1,8,1.6,11.9,1.6c4.2,0,8.3-0.7,12.2-2.2c4-1.4,7.3-3.7,9.9-6.8
				c2.6-3.1,4-7.3,4-12.4c0-4.3-1.2-8-3.5-11c-2.3-3-5.4-5.5-9.2-7.6c-3.8-2.1-7.9-4-12.3-5.7c-4.2-1.4-8.4-3.1-12.5-5
				c-4.1-1.9-8-4.2-11.5-6.9c-3.5-2.7-6.4-6-8.6-10c-2.2-4-3.3-8.8-3.3-14.4c0-6.8,1.6-12.8,4.9-17.9c3.3-5.1,7.8-9.1,13.6-12.1
				c5.8-2.9,12.4-4.5,19.8-4.8c8.4,0,15.8,1,22.2,3.1c6.4,2,12.1,4.5,17,7.4L583.7,426.4z"/>
			<path class="st1" d="M724.1,403.2v130.1h-17.5v-57.1h-68v57.1h-17.5V403.2h17.5v56.3h68v-56.3H724.1z"/>
			<path class="st1" d="M314.4,710.1c-1.8,1.6-4.3,3.1-7.6,4.6c-3.2,1.5-6.8,2.9-10.7,4.1c-3.9,1.2-7.9,2.2-12,2.9
				c-4.1,0.7-8,1.1-11.7,1.1c-10.4,0-19.9-1.6-28.3-4.9c-8.4-3.2-15.6-7.7-21.5-13.5s-10.5-12.5-13.6-20.3
				c-3.1-7.8-4.7-16.2-4.7-25.2c0-11,1.8-20.8,5.3-29.3c3.5-8.5,8.4-15.8,14.5-21.7c6.1-5.9,13.2-10.4,21.3-13.5
				c8.1-3.1,16.6-4.6,25.5-4.6c7.7,0,14.8,0.9,21.2,2.6c6.5,1.7,12.2,4,17.1,6.9l-5.8,16c-2.5-1.3-5.6-2.6-9.1-3.9
				c-3.5-1.3-7.2-2.3-10.9-3.1c-3.7-0.8-7.1-1.2-10.3-1.2c-7.8,0-14.8,1.2-21,3.5c-6.2,2.3-11.5,5.7-16,10.1
				c-4.5,4.4-8,9.7-10.3,15.8c-2.4,6.2-3.6,13.1-3.6,20.8c0,7,1.2,13.4,3.6,19.4c2.4,5.9,5.8,11,10.3,15.3c4.5,4.3,9.8,7.5,15.9,9.8
				c6.1,2.3,13,3.4,20.5,3.4c4.3,0,8.6-0.4,13-1.3c4.3-0.8,8-2.2,11-4v-25.6H271v-16.9h43.4V710.1z"/>
			<path class="st1" d="M339.6,656.3c0-9,1.7-17.5,5.1-25.6c3.4-8,8.2-15.1,14.3-21.3c6.1-6.2,13.2-11,21.1-14.5
				c8-3.5,16.6-5.2,25.8-5.2c9,0,17.5,1.7,25.6,5.2c8,3.5,15.1,8.3,21.3,14.5c6.2,6.2,11,13.3,14.5,21.3c3.5,8,5.2,16.6,5.2,25.7
				c0,9.1-1.7,17.7-5.2,25.7c-3.5,8-8.3,15.1-14.4,21.1c-6.1,6.1-13.2,10.8-21.2,14.2c-8,3.4-16.6,5.1-25.7,5.1
				c-9.2,0-17.9-1.7-25.8-5c-8-3.4-15-8.1-21.1-14.1c-6.1-6.1-10.9-13.1-14.3-21.1C341.3,674.5,339.6,665.8,339.6,656.3z
				 M357.6,656.3c0,7,1.2,13.4,3.7,19.4c2.5,5.9,5.9,11.2,10.4,15.8c4.5,4.6,9.7,8.1,15.5,10.7c5.8,2.6,12.1,3.9,19,3.9
				c6.8,0,13.2-1.3,19-3.9c5.8-2.6,10.9-6.1,15.3-10.6c4.4-4.5,7.8-9.7,10.4-15.8c2.5-6,3.8-12.4,3.8-19.3c0-7-1.3-13.4-3.8-19.4
				c-2.5-6-6-11.3-10.4-15.9c-4.4-4.6-9.5-8.2-15.5-10.8c-5.9-2.6-12.3-3.9-19-3.9c-6.8,0-13.2,1.3-19.2,4
				c-5.9,2.6-11.1,6.2-15.5,10.8c-4.4,4.6-7.8,9.9-10.2,15.9C358.8,643.2,357.6,649.6,357.6,656.3z"/>
			<path class="st1" d="M604.9,591.2v130.1h-17.5v-57.1h-68v57.1H502V591.2h17.5v56.3h68v-56.3H604.9z"/>
			<path class="st1" d="M642.5,591.2h84.6v16.7H660v39.6h59.9v16.9H660v40.1h69.7v16.7h-87.1V591.2z"/>
			<path class="st1" d="M759.9,591.2h17.5v113.4h66.1v16.7h-83.5V591.2z"/>
		</g>
	</g>
</g>
</svg>
